<svg viewBox="0 0 27 24" xmlns="http://www.w3.org/2000/svg" fill="currentColor"><path d="M7.72.59a6.82 6.82 0 017.7 1.53 8.23 8.23 0 011.9 3.09l.09-.13c1.6-1.95 4.96-1.24 5.21 2.5v.05C24.2 7.9 27 9.02 27 12.53a4.57 4.57 0 01-3.3 4.6c-.54.19-1.12.28-1.7.28h-4.54L10.36 24v-6.59H4.95A5 5 0 010 12.48c0-3 1.97-4.32 3.71-4.76l-.03-.28a7.18 7.18 0 01-.02-.57c0-2.45 1.67-5.27 4.06-6.28zM12.08 6a1.9 1.9 0 00-2.25 1.25l-.04.15-.03.2c-.04.25-.02.5.05.75L7.53 9.88a1.9 1.9 0 00-2.94.93l-.04.13-.03.15a1.9 1.9 0 103.63-.42l2.18-1.46a1.9 1.9 0 001.44.52l1.1 2.58c-.1.15-.18.31-.24.5l-.04.13-.03.15a1.9 1.9 0 103.62-.43l1.4-.91a1.9 1.9 0 003.36-.7 1.9 1.9 0 00-3.65-1.02l-.05.14-.03.16c-.02.16-.03.32-.01.47l-1.64 1.07a1.9 1.9 0 00-1.88-.22l-.96-2.25a1.88 1.88 0 00-.64-3.4zm1.48 7.17a.9.9 0 011.74.41.9.9 0 01-1.74-.41zm-8.04-2a.9.9 0 011.75.41.9.9 0 01-1.75-.41zm12.7-.77a.9.9 0 011.74.41.9.9 0 01-1.75-.41zm-7.45-2.77a.9.9 0 011.74.41.9.9 0 01-1.74-.4z"/></svg>